<?xml version="1.0"?>
<svg xmlns="http://www.w3.org/2000/svg" xmlns:xlink="http://www.w3.org/1999/xlink" version="1.1" id="Layer_1" x="0px" y="0px" viewBox="0 0 503.467 503.467" style="enable-background:new 0 0 503.467 503.467;" xml:space="preserve" width="512px" height="512px" class=""><g><g transform="translate(5 1)">
	<path style="fill:#1D60DC" d="M255.267,45.933c0-4.267-3.413-8.533-8.533-8.533c-5.12,0-8.533,4.267-8.533,8.533   s3.413,8.533,8.533,8.533C251.853,54.467,255.267,50.2,255.267,45.933L255.267,45.933z M340.6,71.533V88.6H152.867V71.533V37.4   h52.053c4.267-19.627,21.333-34.133,41.813-34.133S284.28,17.773,288.547,37.4H340.6V71.533z" data-original="#80D6FA" class="" data-old_color="#80D6FA"/>
	<path style="fill:#EFEFEF" d="M460.067,71.533v392.533c0,17.067-17.067,34.133-34.133,34.133h-358.4   c-17.067,0-34.133-17.067-34.133-34.133V71.533C33.4,54.467,50.467,37.4,67.533,37.4h85.333v34.133H67.533v366.933   c0,14.507,11.093,25.6,25.6,25.6H340.6h34.133l51.2-51.2V395.8V71.533H340.6V37.4h85.333C443,37.4,460.067,54.467,460.067,71.533" data-original="#AAB1BA" class="active-path" data-old_color="#AAB1BA"/>
	<path style="fill:#FFFFFF" d="M425.933,71.533V395.8h-68.267c-9.387,0-17.067,8.533-17.067,17.067v51.2H93.133   c-14.507,0-25.6-11.093-25.6-25.6V71.533h85.333V88.6H340.6V71.533H425.933z M357.667,276.333c0,9.387,7.68,17.067,17.067,17.067   c9.387,0,17.067-7.68,17.067-17.067s-7.68-17.067-17.067-17.067C365.347,259.267,357.667,266.947,357.667,276.333L357.667,276.333z   " data-original="#ECF4F7" class="" data-old_color="#ECF4F7"/>
	<path style="fill:#20CBAF" d="M374.733,259.267c9.387,0,17.067,7.68,17.067,17.067s-7.68,17.067-17.067,17.067   c-9.387,0-17.067-7.68-17.067-17.067S365.347,259.267,374.733,259.267" data-original="#FF7474" class="" data-old_color="#FF7474"/>
	<path style="fill:#EFEFEF" d="M425.933,395.8v17.067l-51.2,51.2H340.6v-51.2c0-8.533,7.68-17.067,17.067-17.067H425.933z" data-original="#AAB1BA" class="active-path" data-old_color="#AAB1BA"/>
</g><path style="fill:#1D60DC" d="M430.933,503.467h-358.4c-19.627,0-38.4-18.773-38.4-38.4V72.533c0-19.627,18.773-38.4,38.4-38.4  h51.2c2.56,0,4.267,1.707,4.267,4.267s-1.707,4.267-4.267,4.267h-51.2c-14.507,0-29.867,15.36-29.867,29.867v392.533  c0,14.507,15.36,29.867,29.867,29.867h358.4c14.507,0,29.867-15.36,29.867-29.867V72.533c0-14.507-15.36-29.867-29.867-29.867h-51.2  c-2.56,0-4.267-1.707-4.267-4.267s1.707-4.267,4.267-4.267h51.2c19.627,0,38.4,18.773,38.4,38.4v392.533  C469.333,484.693,450.56,503.467,430.933,503.467z M379.733,469.333c-0.853,0-2.56,0-3.413-0.853c-1.707-1.707-1.707-4.267,0-5.973  l50.347-50.347V76.8h-46.933c-2.56,0-4.267-1.707-4.267-4.267c0-2.56,1.707-4.267,4.267-4.267h51.2c2.56,0,4.267,1.707,4.267,4.267  v341.333c0,0.853-0.853,2.56-0.853,3.413l-51.2,51.2C382.293,469.333,380.587,469.333,379.733,469.333z M345.6,469.333H98.133  c-16.213,0-29.867-13.653-29.867-29.867V72.533c0-2.56,1.707-4.267,4.267-4.267h51.2c2.56,0,4.267,1.707,4.267,4.267  c0,2.56-1.707,4.267-4.267,4.267H76.8v362.667c0,11.947,9.387,21.333,21.333,21.333h243.2v-46.933  c0-11.093,10.24-21.333,21.333-21.333H396.8c2.56,0,4.267,1.707,4.267,4.267s-1.707,4.267-4.267,4.267h-34.133  c-6.827,0-12.8,6.827-12.8,12.8v51.2C349.867,467.627,348.16,469.333,345.6,469.333z M243.2,384L243.2,384  c-1.707,0-3.413-0.853-4.267-2.56l-64-192.853l-29.867,90.453c-0.853,1.707-2.56,2.56-4.267,2.56h-34.133  c-2.56,0-4.267-1.707-4.267-4.267s1.707-4.267,4.267-4.267h30.72l33.28-99.84c0.853-3.413,6.827-3.413,7.68,0L243.2,366.933  l55.467-142.507c0.853-1.707,1.707-2.56,3.413-2.56s3.413,0.853,4.267,2.56l24.747,48.64H358.4  C360.107,263.68,368.64,256,379.733,256c11.947,0,21.333,9.387,21.333,21.333s-9.387,21.333-21.333,21.333  c-10.24,0-18.773-7.68-21.333-17.067h-29.867c-1.707,0-3.413-0.853-3.413-2.56l-21.333-42.667l-56.32,144.213  C246.613,383.147,244.907,384,243.2,384z M379.733,264.533c-6.827,0-12.8,5.973-12.8,12.8s5.973,12.8,12.8,12.8  c6.827,0,12.8-5.973,12.8-12.8S386.56,264.533,379.733,264.533z M345.6,93.867H157.867c-2.56,0-4.267-1.707-4.267-4.267V38.4  c0-2.56,1.707-4.267,4.267-4.267h48.64C212.48,14.507,230.4,0,251.733,0s39.253,14.507,45.227,34.133h48.64  c2.56,0,4.267,1.707,4.267,4.267v51.2C349.867,92.16,348.16,93.867,345.6,93.867z M162.133,85.333h179.2V42.667h-47.787  c-1.707,0-3.413-1.707-4.267-3.413c-3.413-17.92-19.627-30.72-37.547-30.72c-17.92,0-34.133,12.8-37.547,30.72  c0,1.707-2.56,3.413-4.267,3.413h-47.787V85.333z M251.733,59.733c-6.827,0-12.8-5.973-12.8-12.8s5.973-12.8,12.8-12.8  c6.827,0,12.8,5.973,12.8,12.8S258.56,59.733,251.733,59.733z M251.733,42.667c-2.56,0-4.267,1.707-4.267,4.267  c0,2.56,1.707,4.267,4.267,4.267c2.56,0,4.267-1.707,4.267-4.267C256,44.373,254.293,42.667,251.733,42.667z" data-original="#51565F" class="" data-old_color="#51565F"/></g> </svg>
