<?xml version="1.0"?>
<svg xmlns="http://www.w3.org/2000/svg" id="Layer_1" height="512px" viewBox="0 0 512 512" width="512px" data-name="Layer 1" class=""><g><path d="m46.52 452.19v-251.8c1.01-37.41 47.46-71.8 72.92-71.8h-30c-25.46 0-71.91 34.39-72.92 71.8v251.8c0 12.78 13.51 27.3 26.29 27.3h30c-12.78 0-26.29-14.52-26.29-27.3z" fill="#d4e1f4" data-original="#D4E1F4" class="active-path" style="fill:#D4E1F4" data-old_color="#d4e1f4"/><g fill="#1ae5be"><path d="m334.154 422.05a45.133 45.133 0 0 0 40.582-25.3l40.674-83.319a45.078 45.078 0 1 0 -81.018-39.552l-40.674 83.321a45.078 45.078 0 0 0 20.733 60.285 44.815 44.815 0 0 0 19.703 4.565zm11.021-142.906a33.079 33.079 0 1 1 59.452 29.023l-17.7 36.268-59.457-29.023zm-42.229 108.589a32.862 32.862 0 0 1 1.555-25.27l17.705-36.263 59.452 29.023-17.705 36.268a33.118 33.118 0 0 1 -44.238 15.209 32.865 32.865 0 0 1 -16.769-18.967z" data-original="#1AE5BE" class="" style="fill:#20CBAF" data-old_color="#1AE5BE"/><path d="m342.687 308.055a5.993 5.993 0 0 0 8.023-2.76l7.457-15.275a21.5 21.5 0 0 1 12.409-10.971 6 6 0 1 0 -3.9-11.347 33.418 33.418 0 0 0 -19.29 17.053l-7.457 15.276a6 6 0 0 0 2.758 8.024z" data-original="#1AE5BE" class="" style="fill:#20CBAF" data-old_color="#1AE5BE"/><path d="m476.171 310.43a45.079 45.079 0 0 0 -60.285 20.735l-40.675 83.319a45.079 45.079 0 0 0 81.019 39.552l40.674-83.32a45.079 45.079 0 0 0 -20.733-60.286zm-30.724 138.341a33.079 33.079 0 0 1 -59.453-29.023l17.7-36.268 59.458 29.02zm40.674-83.319-17.7 36.268-59.457-29.02 17.7-36.268a33.079 33.079 0 1 1 59.452 29.023z" data-original="#1AE5BE" class="" style="fill:#20CBAF" data-old_color="#1AE5BE"/><path d="m448.168 324.986a33.413 33.413 0 0 0 -19.29 17.055l-7.457 15.274a6 6 0 1 0 10.779 5.265l7.458-15.276a21.493 21.493 0 0 1 12.408-10.97 6 6 0 1 0 -3.9-11.348z" data-original="#1AE5BE" class="" style="fill:#20CBAF" data-old_color="#1AE5BE"/></g><path d="m255.639 474.257a37.317 37.317 0 0 0 7.55-22.069v-251.8c0-25.581-17.794-51.425-38.271-65.948a24.84 24.84 0 0 0 22.092-24.655v-58.47a24.834 24.834 0 0 0 -24.81-24.806h-170.7a24.834 24.834 0 0 0 -24.8 24.806v58.473a24.834 24.834 0 0 0 24.8 24.806h3.529a113 113 0 0 0 -15.209 11.385c-18.127 16.123-28.807 35.9-29.3 54.25v.162 251.8c0 16.5 16.3 33.3 32.292 33.3h192.13c7.858 0 15.204-3.991 20.697-11.234zm-4.45-81.889h-166.661v-153.842h166.661zm-37.549-353.859h8.56a12.82 12.82 0 0 1 12.81 12.806v58.473a12.82 12.82 0 0 1 -12.81 12.806h-8.56zm-35.394 0h23.394v84.085h-23.394zm-36.4 0h24.4v84.085h-24.4zm-34.382 0h22.382v84.085h-22.386zm-36.4 0h24.4v84.085h-24.4zm-19.564 84.085a12.82 12.82 0 0 1 -12.8-12.806v-58.473a12.82 12.82 0 0 1 12.8-12.806h7.554v84.085zm-28.983 329.594v-251.712c.436-15.035 9.646-31.625 25.28-45.531 13.685-12.173 30.419-20.351 41.64-20.351h104.14c21.159 0 57.612 32.513 57.612 65.8v26.135h-172.661a6 6 0 0 0 -6 6v165.839a6 6 0 0 0 6 6h172.661v47.82c0 9.648-7.247 21.3-16.247 21.3h-192.133c-9.293.003-20.292-11.545-20.292-21.3z" fill="#0635c9" data-original="#0635C9" class="" style="fill:#1D60DC" data-old_color="#0635c9"/><path d="m118.28 338.638h30.405v30.4a8.03 8.03 0 0 0 8.022 8.022h25.281a8.031 8.031 0 0 0 8.023-8.022v-30.4h30.4a8.032 8.032 0 0 0 8.023-8.023v-25.281a8.032 8.032 0 0 0 -8.023-8.022h-30.4v-30.4a8.032 8.032 0 0 0 -8.023-8.023h-25.281a8.031 8.031 0 0 0 -8.022 8.023v30.4h-30.4a8.031 8.031 0 0 0 -8.022 8.022v25.281a8.031 8.031 0 0 0 8.017 8.023zm3.978-29.326h30.4a8.032 8.032 0 0 0 8.023-8.022v-30.405h17.326v30.405a8.031 8.031 0 0 0 8.022 8.022h30.405v17.326h-30.4a8.03 8.03 0 0 0 -8.022 8.022v30.4h-17.327v-30.4a8.031 8.031 0 0 0 -8.023-8.022h-30.4z" fill="#0635c9" data-original="#0635C9" class="" style="fill:#1D60DC" data-old_color="#0635c9"/><path d="m46.605 250.063a6 6 0 0 0 -6 6v144.348a6 6 0 0 0 12 0v-144.348a6 6 0 0 0 -6-6z" fill="#0635c9" data-original="#0635C9" class="" style="fill:#1D60DC" data-old_color="#0635c9"/><path d="m46 242.252a6 6 0 0 0 6-6v-4.289a6 6 0 1 0 -12 0v4.289a6 6 0 0 0 6 6z" fill="#0635c9" data-original="#0635C9" class="" style="fill:#1D60DC" data-old_color="#0635c9"/></g> </svg>
