<?xml version="1.0"?>
<svg xmlns="http://www.w3.org/2000/svg" id="Flat" height="512px" viewBox="0 0 512 512" width="512px" class=""><g><g fill="#1261a0"><path d="m488 80a8 8 0 0 1 -8-8v-40h-40a8 8 0 0 1 0-16h48a8 8 0 0 1 8 8v48a8 8 0 0 1 -8 8z" data-original="#1261A0" class="" style="fill:#132352" data-old_color="#1261A0"/><path d="m24 80a8 8 0 0 1 -8-8v-48a8 8 0 0 1 8-8h48a8 8 0 0 1 0 16h-40v40a8 8 0 0 1 -8 8z" data-original="#1261A0" class="" style="fill:#132352" data-old_color="#1261A0"/><path d="m488 496h-48a8 8 0 0 1 0-16h40v-40a8 8 0 0 1 16 0v48a8 8 0 0 1 -8 8z" data-original="#1261A0" class="" style="fill:#132352" data-old_color="#1261A0"/><path d="m72 496h-48a8 8 0 0 1 -8-8v-48a8 8 0 0 1 16 0v40h40a8 8 0 0 1 0 16z" data-original="#1261A0" class="" style="fill:#132352" data-old_color="#1261A0"/></g><path d="m200 208h-144a8 8 0 0 1 -8-8v-144a8 8 0 0 1 8-8h144a8 8 0 0 1 8 8v144a8 8 0 0 1 -8 8zm-136-16h128v-128h-128z" fill="#2d85cc" data-original="#2D85CC" class="" style="fill:#20CBAF" data-old_color="#2d85cc"/><path d="m88 88h80v80h-80z" fill="#eb423f" data-original="#EB423F" class="active-path" style="fill:#4385FF" data-old_color="#eb423f"/><path d="m88 344h80v80h-80z" fill="#ffb632" data-original="#FFB632" class="" style="fill:#132352" data-old_color="#ffb632"/><path d="m344 88h80v80h-80z" fill="#2d85cc" data-original="#2D85CC" class="" style="fill:#20CBAF" data-old_color="#2d85cc"/><path d="m456 207.5h-144a8 8 0 0 1 -8-8v-143.5a8 8 0 0 1 8-8h144a8 8 0 0 1 8 8v143.5a8 8 0 0 1 -8 8zm-136-16h128v-127.5h-128z" fill="#eb423f" data-original="#EB423F" class="active-path" style="fill:#4385FF" data-old_color="#eb423f"/><path d="m200 464h-144a8 8 0 0 1 -8-8v-144a8 8 0 0 1 8-8h144a8 8 0 0 1 8 8v144a8 8 0 0 1 -8 8zm-136-16h128v-128h-128z" fill="#eb423f" data-original="#EB423F" class="active-path" style="fill:#4385FF" data-old_color="#eb423f"/><path d="m232 112a8 8 0 0 1 -8-8v-48a8 8 0 0 1 8-8h16a8 8 0 0 1 0 16h-8v40a8 8 0 0 1 -8 8z" fill="#2d85cc" data-original="#2D85CC" class="" style="fill:#20CBAF" data-old_color="#2d85cc"/><circle cx="280" cy="56" fill="#ffb632" r="8" data-original="#FFB632" class="" style="fill:#132352" data-old_color="#ffb632"/><path d="m280 112h-16a8 8 0 0 1 0-16h8v-8a8 8 0 0 1 16 0v16a8 8 0 0 1 -8 8z" fill="#eb423f" data-original="#EB423F" class="active-path" style="fill:#4385FF" data-old_color="#eb423f"/><path d="m264 184a8 8 0 0 1 -8-8v-32a8 8 0 0 1 8-8h16a8 8 0 0 1 0 16h-8v24a8 8 0 0 1 -8 8z" fill="#eb423f" data-original="#EB423F" class="active-path" style="fill:#4385FF" data-old_color="#eb423f"/><path d="m280 208h-48a8 8 0 0 1 -8-8v-64a8 8 0 0 1 16 0v56h40a8 8 0 0 1 0 16z" fill="#ffb632" data-original="#FFB632" class="" style="fill:#132352" data-old_color="#ffb632"/><path d="m296 464h-32a8 8 0 0 1 0-16h24v-40a8 8 0 0 1 16 0v48a8 8 0 0 1 -8 8z" fill="#eb423f" data-original="#EB423F" class="active-path" style="fill:#4385FF" data-old_color="#eb423f"/><circle cx="232" cy="456" fill="#ffb632" r="8" data-original="#FFB632" class="" style="fill:#132352" data-old_color="#ffb632"/><path d="m232 432a8 8 0 0 1 -8-8v-16a8 8 0 0 1 8-8h32a8 8 0 0 1 0 16h-24v8a8 8 0 0 1 -8 8z" fill="#eb423f" data-original="#EB423F" class="active-path" style="fill:#4385FF" data-old_color="#eb423f"/><path d="m232 320a8 8 0 0 1 -8-8v-48a8 8 0 0 1 8-8h24a8 8 0 0 1 0 16h-16v40a8 8 0 0 1 -8 8z" fill="#2d85cc" data-original="#2D85CC" class="" style="fill:#20CBAF" data-old_color="#2d85cc"/><path d="m288 288a8 8 0 0 1 -8-8v-40h-48a8 8 0 0 1 0-16h56a8 8 0 0 1 8 8v48a8 8 0 0 1 -8 8z" fill="#eb423f" data-original="#EB423F" class="active-path" style="fill:#4385FF" data-old_color="#eb423f"/><path d="m104 288h-48a8 8 0 0 1 -8-8v-16a8 8 0 0 1 16 0v8h40a8 8 0 0 1 0 16z" fill="#eb423f" data-original="#EB423F" class="active-path" style="fill:#4385FF" data-old_color="#eb423f"/><path d="m88 256a8 8 0 0 1 -8-8v-8h-24a8 8 0 0 1 0-16h32a8 8 0 0 1 8 8v16a8 8 0 0 1 -8 8z" fill="#ffb632" data-original="#FFB632" class="" style="fill:#132352" data-old_color="#ffb632"/><path d="m168 256h-48a8 8 0 0 1 -8-8v-16a8 8 0 0 1 16 0v8h40a8 8 0 0 1 0 16z" fill="#2d85cc" data-original="#2D85CC" class="" style="fill:#20CBAF" data-old_color="#2d85cc"/><path d="m200 288h-64a8 8 0 0 1 0-16h56v-40a8 8 0 0 1 16 0v48a8 8 0 0 1 -8 8z" fill="#ffb632" data-original="#FFB632" class="" style="fill:#132352" data-old_color="#ffb632"/><path d="m456 256a8 8 0 0 1 -8-8v-8h-40a8 8 0 0 1 0-16h48a8 8 0 0 1 8 8v16a8 8 0 0 1 -8 8z" fill="#eb423f" data-original="#EB423F" class="active-path" style="fill:#4385FF" data-old_color="#eb423f"/><circle cx="320" cy="312" fill="#ffb632" r="8" data-original="#FFB632" class="" style="fill:#132352" data-old_color="#ffb632"/><path d="m424 288h-40a8 8 0 0 1 0-16h32v-8a8 8 0 0 1 16 0v16a8 8 0 0 1 -8 8z" fill="#ffb632" data-original="#FFB632" class="" style="fill:#132352" data-old_color="#ffb632"/><path d="m424 400a8 8 0 0 1 -8-8v-8h-24a8 8 0 0 1 0-16h32a8 8 0 0 1 8 8v16a8 8 0 0 1 -8 8z" fill="#ffb632" data-original="#FFB632" class="" style="fill:#132352" data-old_color="#ffb632"/><circle cx="424" cy="424" fill="#2d85cc" r="8" data-original="#2D85CC" class="" style="fill:#20CBAF" data-old_color="#2d85cc"/><circle cx="360" cy="376" fill="#eb423f" r="8" data-original="#EB423F" class="active-path" style="fill:#4385FF" data-old_color="#eb423f"/><path d="m392 432h-32a8 8 0 0 1 -8-8v-16a8 8 0 0 1 16 0v8h24a8 8 0 0 1 0 16z" fill="#ffb632" data-original="#FFB632" class="" style="fill:#132352" data-old_color="#ffb632"/><path d="m391 320h-39a8 8 0 0 1 -8-8v-48a8 8 0 0 1 16 0v40h31a8 8 0 0 1 0 16z" fill="#eb423f" data-original="#EB423F" class="active-path" style="fill:#4385FF" data-old_color="#eb423f"/><path d="m320 288a8 8 0 0 1 -8-8v-48a8 8 0 0 1 8-8h56a8 8 0 0 1 0 16h-48v40a8 8 0 0 1 -8 8z" fill="#2d85cc" data-original="#2D85CC" class="" style="fill:#20CBAF" data-old_color="#2d85cc"/><path d="m232 344h64v32h-64z" fill="#ffb632" data-original="#FFB632" class="" style="fill:#132352" data-old_color="#ffb632"/><path d="m456 464h-128a8 8 0 0 1 -8-8v-112a8 8 0 0 1 8-8h128a8 8 0 0 1 8 8v112a8 8 0 0 1 -8 8zm-120-16h112v-96h-112z" fill="#2d85cc" data-original="#2D85CC" class="" style="fill:#20CBAF" data-old_color="#2d85cc"/><path d="m288 320h-15a8 8 0 0 1 0-16h15a8 8 0 0 1 0 16z" fill="#eb423f" data-original="#EB423F" class="active-path" style="fill:#4385FF" data-old_color="#eb423f"/><path d="m456 320h-32a8 8 0 0 1 0-16h24v-24a8 8 0 0 1 16 0v32a8 8 0 0 1 -8 8z" fill="#2d85cc" data-original="#2D85CC" class="" style="fill:#20CBAF" data-old_color="#2d85cc"/></g> </svg>
