<svg id="Capa_1" enable-background="new 0 0 512 512" height="512" viewBox="0 0 512 512" width="512" xmlns="http://www.w3.org/2000/svg"><g><path d="m451 120v377c0 8.28-6.72 15-15 15h-360c-8.28 0-15-6.72-15-15v-482c0-8.28 6.72-15 15-15h255.05l46.497 76.521z" fill="#f3f4ff"/><path d="m451 120v377c0 8.28-6.72 15-15 15h-180v-512h75.05l46.5 76.52z" fill="#e3e8ff"/><path d="m451 120h-105c-8.28 0-15-6.72-15-15v-105h.05z" fill="#d2dbff"/><path d="m251.606 371.394c-5.857-5.857-15.355-5.857-21.213 0l-15.893 15.893-26.216-26.216c13.556-7.762 22.716-22.362 22.716-39.071 0-24.813-20.187-45-45-45h-30c-8.284 0-15 6.716-15 15v112.999c0 8.284 6.716 15 15 15s15-6.716 15-15v-37.999h.787l41.5 41.5-15.926 15.926c-5.858 5.857-5.858 15.355 0 21.213 5.859 5.858 15.355 5.858 21.213 0l15.926-15.926 15.822 15.822c5.859 5.858 15.355 5.858 21.213 0 5.858-5.857 5.858-15.355 0-21.213l-15.822-15.822 15.894-15.894c5.858-5.857 5.858-15.355-.001-21.212zm-100.606-64.394h15c8.271 0 15 6.729 15 15s-6.729 15-15 15h-15z" fill="#37afe2"/><path d="m136 180h240c8.284 0 15-6.716 15-15s-6.716-15-15-15h-240c-8.284 0-15 6.716-15 15s6.716 15 15 15z" fill="#e3e8ff"/><path d="m391 165c0 8.28-6.72 15-15 15h-120v-30h120c8.28 0 15 6.72 15 15z" fill="#d2dbff"/><path d="m376 210h-240c-8.284 0-15 6.716-15 15s6.716 15 15 15h240c8.284 0 15-6.716 15-15s-6.716-15-15-15z" fill="#e3e8ff"/><path d="m391 225c0 8.28-6.72 15-15 15h-120v-30h120c8.28 0 15 6.72 15 15z" fill="#d2dbff"/><path d="m136 120h150c8.284 0 15-6.716 15-15s-6.716-15-15-15h-150c-8.284 0-15 6.716-15 15s6.716 15 15 15z" fill="#e3e8ff"/><g fill="#d2dbff"><path d="m301 105c0 8.28-6.72 15-15 15h-30v-30h30c8.28 0 15 6.72 15 15z"/><path d="m376 270h-90c-8.284 0-15 6.716-15 15s6.716 15 15 15h90c8.284 0 15-6.716 15-15s-6.716-15-15-15z"/><path d="m376 330h-90c-8.284 0-15 6.716-15 15s6.716 15 15 15h90c8.284 0 15-6.716 15-15s-6.716-15-15-15z"/></g></g></svg>