<?xml version="1.0"?>
<svg xmlns="http://www.w3.org/2000/svg" xmlns:xlink="http://www.w3.org/1999/xlink" xmlns:svgjs="http://svgjs.com/svgjs" version="1.1" width="512" height="512" x="0" y="0" viewBox="0 0 512 512" style="enable-background:new 0 0 512 512" xml:space="preserve" class=""><g><g xmlns="http://www.w3.org/2000/svg"><path d="m511.993 256c0-4.694-2.196-9.152-5.993-12l-84.38-63.281v-165.719c0-8.284-6.716-15-15-15h-301.24c-8.284 0-15 6.716-15 15v165.72l-84.38 63.28c-3.797 2.848-5.994 7.305-5.993 12-.003 0-.005 0-.007 0v241c0 8.284 6.716 15 15 15h482c8.284 0 15-6.716 15-15v-241c-.002 0-.005 0-.007 0zm-43.41-2.562-2.418 1.209-44.545 22.271v-58.7zm-348.203-223.438h271.24v261.919l-135.62 67.81-135.62-67.811zm-30 188.219v58.7l-46.962-23.48zm391.62 263.781h-452v-201.729l219.292 109.646c2.111 1.056 4.41 1.584 6.708 1.584 2.299 0 4.597-.528 6.708-1.584l219.292-109.646z" fill="#ffffff" data-original="#000000" style=""/><path d="m251.444 303.79c1.483.474 3.022.71 4.561.71s3.078-.236 4.561-.71c27.268-8.704 48.933-25.304 64.394-49.34 16.154-25.117 24.693-57.346 24.693-93.201v-36.215c0-5.355-2.855-10.305-7.491-12.985-7.278-4.209-13.35-10.28-17.558-17.558-2.681-4.636-7.63-7.491-12.985-7.491h-111.238c-5.355 0-10.305 2.855-12.985 7.491-4.208 7.277-10.279 13.349-17.558 17.558-4.636 2.681-7.491 7.63-7.491 12.985v36.215c0 35.855 8.541 68.084 24.698 93.2 15.462 24.035 37.129 40.636 64.399 49.341zm-59.097-170.699c6.116-4.549 11.542-9.975 16.09-16.091h95.125c4.548 6.116 9.975 11.542 16.091 16.091v28.158c0 30.089-6.89 56.706-19.925 76.973-10.714 16.656-25.406 28.55-43.723 35.408-18.319-6.859-33.014-18.754-43.729-35.411-13.038-20.267-19.929-46.882-19.929-76.97z" fill="#ffffff" data-original="#000000" style=""/><path d="m233.787 214.067c2.379 3.42 6.074 5.695 10.199 6.283.705.1 1.411.149 2.114.149 3.412 0 6.747-1.165 9.433-3.337l36.499-29.52c6.441-5.21 7.439-14.654 2.23-21.096-5.21-6.443-14.656-7.438-21.096-2.23l-23.962 19.38-7.49-10.765c-4.732-6.801-14.081-8.477-20.88-3.745-6.8 4.731-8.478 14.079-3.746 20.88z" fill="#ffffff" data-original="#000000" style=""/></g></g></svg>
