<?xml version="1.0"?>
<svg xmlns="http://www.w3.org/2000/svg" height="512px" viewBox="0 -46 494.00002 494" width="512px" class=""><g><path d="m346 368h-280c-18.21875-.019531-32.980469-14.78125-33-33v-187.425781c-.003906-3.777344.648438-7.523438 1.917969-11.082031-13.132813 4.699218-21.902344 17.132812-21.917969 31.082031v187.425781c.019531 18.21875 14.78125 32.980469 33 33h280c13.945312-.015625 26.382812-8.785156 31.082031-21.917969-3.558593 1.269531-7.304687 1.921875-11.082031 1.917969zm0 0" fill="#d4e1f4" data-original="#D4E1F4" class=""/><path d="m427.429688 91.28125c-2.4375-3-6.847657-3.453125-9.847657-1.015625l-71.652343 58.300781-28.605469-33.5c-2.511719-2.9375-6.929688-3.285156-9.871094-.777344-2.9375 2.511719-3.285156 6.929688-.777344 9.871094l33.046875 38.699219c2.46875 2.890625 6.789063 3.28125 9.738282.882813l76.957031-62.609376c1.441406-1.171874 2.359375-2.867187 2.546875-4.714843.191406-1.847657-.359375-3.699219-1.535156-5.136719zm0 0" fill="#1ae5be" data-original="#1AE5BE" class="active-path" style="fill:#20CBAF" data-old_color="#1ae5be"/><path d="m2.476562 168.214844 156.785157 132.757812c16.023437 13.644532 39.585937 13.632813 55.597656-.023437l85.164063-72.230469c1.941406-1.605469 2.867187-4.132812 2.429687-6.613281-.441406-2.484375-2.183594-4.535157-4.558594-5.375-2.378906-.839844-5.019531-.339844-6.925781 1.3125l-85.160156 72.226562c-10.800782 9.214844-26.691406 9.21875-37.5.015625l-156.785156-132.757812c-2.953126-2.488282-7.363282-2.117188-9.855469.828125-2.496094 2.949219-2.132813 7.359375.808593 9.859375zm0 0" fill="#1ae5be" data-original="#1AE5BE" class="active-path" style="fill:#20CBAF" data-old_color="#1ae5be"/><path d="m367 0c-67.257812-.0195312-122.859375 52.425781-126.765625 119.574219h-193.234375c-25.945312.027343-46.9726562 21.054687-47 47v187.425781c-.0117188 10.960938 3.828125 21.578125 10.847656 30 .542969 1.046875 1.34375 1.9375 2.324219 2.585938 8.84375 9.214843 21.058594 14.417968 33.828125 14.414062h280c12.753906.003906 24.957031-5.191406 33.792969-14.382812.375-.246094.722656-.53125 1.042969-.84375.523437-.515626.960937-1.105469 1.300781-1.757813 7.027343-8.421875 10.875-19.046875 10.863281-30.015625v-100.191406c66.785156-3.648438 120-59.125 120-126.808594-.078125-70.105469-56.890625-126.921875-127-127zm-7 354c.007812 5.523438-1.382812 10.960938-4.039062 15.808594l-84.132813-85.601563c-2.71875-2.703125-7.109375-2.71875-9.84375-.03125-2.734375 2.691407-2.796875 7.078125-.140625 9.84375l84.914062 86.394531c-5.695312 4.28125-12.632812 6.59375-19.757812 6.585938h-280c-7.144531.007812-14.09375-2.316406-19.800781-6.617188l84.449219-86.375c1.789062-1.78125 2.480468-4.386718 1.808593-6.816406-.667969-2.433594-2.59375-4.316406-5.042969-4.933594-2.445312-.613281-5.035156.136719-6.773437 1.964844l-83.628906 85.535156c-2.640625-4.832031-4.019531-10.253906-4.011719-15.757812v-187.425781c.019531-18.21875 14.78125-32.980469 33-33h193.171875c3.355469 64.808593 55.03125 116.660156 119.828125 120.238281zm7-114c-62.40625 0-113-50.59375-113-113s50.59375-113 113-113 113 50.59375 113 113-50.59375 113-113 113zm0 0" fill="#0635c9" data-original="#0635C9" class="" style="fill:#1D60DC" data-old_color="#0635c9"/></g> </svg>
